<svg xmlns="http://www.w3.org/2000/svg" width="37.626" height="36.698" viewBox="0 0 37.626 36.698">
  <defs>
    <style>
      .cls-1 {
        fill: #9d9dd8;
      }
    </style>
  </defs>
  <path id="github" class="cls-1" d="M18.813,0a18.815,18.815,0,0,0-5.946,36.665c.939.174,1.243-.409,1.243-.9v-3.5c-5.233,1.138-6.323-2.22-6.323-2.22A4.983,4.983,0,0,0,5.7,27.285c-1.707-1.168.13-1.143.13-1.143A3.949,3.949,0,0,1,8.71,28.081a4,4,0,0,0,5.475,1.563A3.991,3.991,0,0,1,15.38,27.13c-4.178-.478-8.571-2.091-8.571-9.3a7.281,7.281,0,0,1,1.938-5.05A6.767,6.767,0,0,1,8.93,7.8s1.58-.5,5.175,1.928a17.832,17.832,0,0,1,9.421,0C27.117,7.3,28.694,7.8,28.694,7.8a6.76,6.76,0,0,1,.185,4.979,7.262,7.262,0,0,1,1.936,5.05c0,7.226-4.4,8.817-8.59,9.283a4.5,4.5,0,0,1,1.29,3.484V35.76c0,.5.3,1.088,1.256.9A18.816,18.816,0,0,0,18.813,0Z"/>
</svg>
